<svg width="51" height="204" viewBox="0 0 51 204" fill="none" xmlns="http://www.w3.org/2000/svg">
<path d="M50.0561 0.964647C49.8163 30.7314 48.0341 60.502 44.3046 90.0788C41.034 116.008 37.5277 142.667 27.8193 167.346C22.6716 180.435 15.6384 192.879 5.54968 203.34C3.66837 205.293 0.76168 202.477 2.48173 200.521C19.3432 181.298 27.8607 157.732 33.1325 133.836C39.2023 106.326 42.6301 78.22 45.1647 50.2656C46.6532 33.8586 47.5379 17.4249 47.8894 0.964647C47.9142 -0.319649 50.0685 -0.323448 50.0561 0.964647Z" fill="white"/>
<path d="M0.761712 194.816C1.27029 191.963 2.70095 189.193 3.38731 186.347C4.11089 183.341 4.47478 180.378 4.35074 177.296C4.27632 175.495 7.22855 175.533 7.37326 177.296C7.64616 180.575 7.50145 183.968 6.65796 187.175C5.90544 190.036 4.6153 193.544 2.21715 195.595C1.54319 196.177 0.625266 195.588 0.761712 194.816Z" fill="white"/>
<path d="M4.46576 195.235C8.43925 193.985 12.2887 193.027 15.8032 190.804C19.2226 188.642 21.8812 185.572 23.6261 182.13C24.6515 180.104 28.5134 181.56 27.5955 183.668C25.7059 188 22.5222 191.545 18.1972 194.019C14.2734 196.264 9.01398 197.837 4.46576 196.508C3.77526 196.302 3.79593 195.444 4.46576 195.235Z" fill="white"/>
</svg>
