<svg width="468" height="342" viewBox="0 0 468 342" fill="none" xmlns="http://www.w3.org/2000/svg">
<path d="M357.162 59.7161C339.533 42.9664 313.476 32.7584 284.193 28.3214C254.91 23.8844 210.701 27.0144 181.464 33.0943C152.227 39.1742 130.15 48.585 108.773 64.8007C87.3966 81.0164 63.2642 106.407 53.2039 130.388C43.1436 154.37 41.4241 184.916 48.4112 208.687C55.3983 232.459 74.5007 256.488 95.1266 273.016C115.752 289.544 143.669 301.837 172.167 307.854C200.664 313.872 236.205 315.561 266.113 309.122C296.021 302.682 329.98 287.472 351.615 269.219C373.25 250.965 386.568 223.441 395.922 199.6C405.275 175.759 420.974 152.011 407.737 126.172C394.501 100.334 339.372 61.0071 316.504 44.57C293.636 28.1328 271.254 25.6118 270.529 27.5492M146.719 47.3509C116.851 56.0919 85.051 75.068 68.0337 94.2713C51.0164 113.475 44.8381 137.417 44.6153 162.571C44.3925 187.725 51.7331 224.63 66.6968 245.194C81.6606 265.759 108.47 274.014 134.398 285.959C160.325 297.903 191.482 317.138 222.264 316.863C253.045 316.589 292.224 298.607 319.087 284.311C345.95 270.016 368.231 251.383 383.443 231.092C398.655 210.801 410.304 184.562 410.359 162.565C410.413 140.568 395.59 119.354 383.769 99.1101C371.949 78.866 362.78 53.5053 339.435 41.1001C316.089 28.6949 276.822 24.0694 243.695 24.6789C210.569 25.2885 155.656 40.7627 140.674 44.7575C125.693 48.7523 152.228 46.1047 153.804 48.648" stroke="white" stroke-width="2"/>
<path d="M60.4106 111.004C68.3491 90.6936 87.3416 73.9817 112.194 61.6361C137.047 49.2905 179.47 39.6427 209.526 36.9305C239.582 34.2183 264.682 36.5791 292.529 45.3629C320.376 54.1467 355.347 70.5437 376.609 89.6334C397.87 108.723 414.697 136.179 420.097 159.901C425.497 183.623 419.828 211.01 409.008 231.966C398.189 252.922 378.518 272.067 355.18 285.636C331.842 299.205 299.835 310.808 268.979 313.381C238.123 315.955 199.148 311.652 170.045 301.077C140.943 290.502 114.904 269.093 94.3652 249.932C73.8269 230.77 47.4703 213.489 46.8153 186.107C46.1602 158.726 77.4979 107.151 90.435 85.6432C103.372 64.1359 122.802 55.4959 124.438 57.0631M248.752 40.1391C280.719 39.6824 319.577 48.0416 344.885 60.7921C370.193 73.5426 387.847 93.6957 400.601 116.642C413.355 139.588 424.979 175.424 421.407 198.47C417.834 221.516 397.173 236.654 379.167 254.918C361.161 273.182 341.958 299.594 313.37 308.054C284.782 316.514 239.6 311.152 207.64 305.677C175.679 300.203 145.791 289.463 121.608 275.207C97.4263 260.951 73.5697 240.246 62.5465 220.139C51.5233 200.033 54.642 176.433 55.4692 154.569C56.2963 132.706 52.1195 106.913 67.5094 88.9585C82.8992 71.0042 116.886 55.6607 147.808 46.8436C178.731 38.0266 237.205 36.6417 253.045 36.0562C268.885 35.4707 243.039 40.5581 242.851 43.3305" stroke="white"/>
</svg>
