<svg width="129" height="143" viewBox="0 0 129 143" fill="none" xmlns="http://www.w3.org/2000/svg">
<path d="M41.8517 3.15999C29.3794 17.4022 27.2954 39.2822 33.7579 56.9099C41.7978 78.8463 60.6354 93.5835 80.506 102.58C91.8248 107.705 103.729 111.245 115.683 114.323C118.756 115.116 118.183 120.339 115.068 119.549C92.4049 113.779 69.2851 106.352 51.2288 90.1276C34.8845 75.4394 23.4872 54.0537 26.3249 30.8166C27.6795 19.71 32.5475 9.25441 40.2977 1.56205C41.1877 0.673268 42.6936 2.19634 41.8517 3.15999Z" fill="white"/>
<path d="M115.896 118.963C110.462 121.021 105.051 123.306 99.8186 125.909C94.5716 128.525 89.551 131.674 84.2423 134.119C82.1973 135.059 80.583 132.104 82.3386 130.642C91.5612 122.975 103.967 118.766 115.208 116.159C116.761 115.807 117.407 118.392 115.896 118.963Z" fill="white"/>
<path d="M114.564 113.98C109.03 106.471 104.414 97.5535 102.947 88.081C102.643 86.102 105.354 85.8244 105.802 87.6765C108.005 96.7778 110.595 105.292 115.45 113.256C115.832 113.879 115.017 114.591 114.564 113.98Z" fill="white"/>
</svg>
