<svg width="205" height="71" viewBox="0 0 205 71" fill="none" xmlns="http://www.w3.org/2000/svg">
<path d="M8.35323 5.36952C10.5922 25.6179 31.1048 42.7498 55.7707 49.8895C86.4633 58.7761 120.517 53.7503 149.674 43.832C166.283 38.1823 181.84 30.9365 196.97 23.3235C200.862 21.3676 205.682 25.5189 201.753 27.5108C173.136 41.9897 142.351 55.6739 107.543 59.0117C76.0332 62.0316 42.5526 56.2809 21.3918 37.5754C11.2759 28.6362 5.34497 17.2807 5.14932 5.51463C5.12125 4.15964 8.19968 4.00117 8.35323 5.36952Z" fill="white"/>
<path d="M202.247 29.1611C199.098 34.6506 196.195 40.2703 193.776 45.9625C191.355 51.674 189.675 57.5626 187.027 63.2097C186.005 65.3834 181.558 64.6773 181.79 62.3821C183.022 50.3315 190.691 38.1214 198.83 27.8482C199.962 26.4347 203.123 27.636 202.247 29.1611Z" fill="white"/>
<path d="M195.425 27.2024C182.129 26.4321 168.297 23.9053 157.041 18.3942C154.692 17.2408 157.117 14.8126 159.479 15.7574C171.088 20.3997 182.477 24.3066 195.563 25.9601C196.589 26.0874 196.509 27.2632 195.425 27.2024Z" fill="white"/>
</svg>
